<svg xmlns="http://www.w3.org/2000/svg" viewBox="0 0 481 99" fill="none" role="img" aria-label="Lume Search Partners">
  <defs>
    <linearGradient id="lumeArc" x1="0" y1="64" x2="120" y2="0" gradientUnits="userSpaceOnUse">
      <stop offset="0" stop-color="#0080A0"/>
      <stop offset="0.55" stop-color="#19A9C9"/>
      <stop offset="1" stop-color="#0080A0"/>
    </linearGradient>
  </defs>
  <g transform="translate(0 22.30) scale(0.8500)">
    <path d="M14 52 A46 46 0 0 1 106 52" stroke="url(#lumeArc)" stroke-width="9" stroke-linecap="round" fill="none"/>
  </g>
  <path fill="#FFFFFF" d="M146.68 3.02L146.68 38.93L160.79 38.93L160.79 47.25L135.91 47.25L135.91 3.02 M168.29 3.02L179.06 3.02L179.06 29.48Q179.06 33.45 181.01 35.60Q182.97 37.74 186.75 37.74Q190.53 37.74 192.54 35.60Q194.56 33.45 194.56 29.48L194.56 3.02L205.33 3.02L205.33 29.42Q205.33 35.34 202.81 39.44Q200.29 43.53 196.04 45.61Q191.79 47.69 186.56 47.69Q181.33 47.69 177.20 45.64Q173.08 43.60 170.68 39.47Q168.29 35.34 168.29 29.42 M252.83 3.02L265.50 3.02L265.50 47.25L254.72 47.25L254.72 20.73L244.83 47.25L236.14 47.25L226.19 20.66L226.19 47.25L215.41 47.25L215.41 3.02L228.14 3.02L240.55 33.64 M302.86 11.66L286.54 11.66L286.54 20.60L300.97 20.60L300.97 28.92L286.54 28.92L286.54 38.62L302.86 38.62L302.86 47.25L275.77 47.25L275.77 3.02L302.86 3.02"/>
  <path fill="#8aa0b2" d="M140.05 92.44Q138.18 92.44 136.71 91.78Q135.24 91.12 134.40 89.94Q133.57 88.77 133.54 87.23L136.16 87.23Q136.29 88.55 137.25 89.46Q138.21 90.36 140.05 90.36Q141.80 90.36 142.81 89.48Q143.83 88.61 143.83 87.23Q143.83 86.15 143.23 85.47Q142.64 84.80 141.75 84.45Q140.86 84.10 139.34 83.69Q137.48 83.20 136.36 82.72Q135.24 82.23 134.44 81.19Q133.65 80.15 133.65 78.40Q133.65 76.86 134.43 75.67Q135.21 74.48 136.63 73.84Q138.05 73.19 139.88 73.19Q142.53 73.19 144.22 74.51Q145.91 75.83 146.12 78.02L143.42 78.02Q143.29 76.94 142.29 76.12Q141.29 75.29 139.64 75.29Q138.10 75.29 137.13 76.09Q136.16 76.89 136.16 78.32Q136.16 79.34 136.74 79.99Q137.32 80.64 138.17 80.98Q139.02 81.31 140.56 81.75Q142.42 82.26 143.56 82.76Q144.69 83.26 145.50 84.30Q146.31 85.34 146.31 87.12Q146.31 88.50 145.58 89.71Q144.85 90.93 143.42 91.68Q141.99 92.44 140.05 92.44 M167.61 75.43L159.94 75.43L159.94 81.72L166.80 81.72L166.80 83.75L159.94 83.75L159.94 90.22L167.61 90.22L167.61 92.25L157.49 92.25L157.49 73.40L167.61 73.40 M191.53 92.25L190.02 88.06L181.81 88.06L180.30 92.25L177.71 92.25L184.51 73.54L187.35 73.54L194.13 92.25L191.53 92.25M182.52 86.07L189.32 86.07L185.92 76.56 M217.51 92.25L214.57 92.25L210.08 84.56L207.11 84.56L207.11 92.25L204.66 92.25L204.66 73.43L210.73 73.43Q212.87 73.43 214.34 74.16Q215.81 74.89 216.54 76.13Q217.27 77.37 217.27 78.97Q217.27 80.91 216.15 82.39Q215.03 83.88 212.78 84.37L217.51 92.25M207.11 75.46L207.11 82.58L210.73 82.58Q212.73 82.58 213.73 81.60Q214.73 80.61 214.73 78.97Q214.73 77.29 213.74 76.37Q212.76 75.46 210.73 75.46 M227.72 82.83Q227.72 80.07 228.96 77.87Q230.20 75.67 232.35 74.43Q234.49 73.19 237.11 73.19Q240.19 73.19 242.48 74.67Q244.78 76.16 245.83 78.89L242.89 78.89Q242.11 77.18 240.63 76.27Q239.16 75.35 237.11 75.35Q235.14 75.35 233.57 76.27Q232.01 77.18 231.12 78.87Q230.23 80.56 230.23 82.83Q230.23 85.07 231.12 86.76Q232.01 88.44 233.57 89.36Q235.14 90.28 237.11 90.28Q239.16 90.28 240.63 89.37Q242.11 88.47 242.89 86.77L245.83 86.77Q244.78 89.47 242.48 90.94Q240.19 92.41 237.11 92.41Q234.49 92.41 232.35 91.18Q230.20 89.95 228.96 87.77Q227.72 85.58 227.72 82.83 M269.08 73.43L271.54 73.43L271.54 92.25L269.08 92.25L269.08 83.72L259.49 83.72L259.49 92.25L257.04 92.25L257.04 73.43L259.49 73.43L259.49 81.69L269.08 81.69 M310.63 78.94Q310.63 81.29 309.03 82.84Q307.42 84.39 304.13 84.39L300.51 84.39L300.51 92.25L298.05 92.25L298.05 73.43L304.13 73.43Q307.31 73.43 308.97 74.97Q310.63 76.51 310.63 78.94M304.13 82.37Q306.18 82.37 307.15 81.48Q308.12 80.59 308.12 78.94Q308.12 75.46 304.13 75.46L300.51 75.46L300.51 82.37 M333.88 92.25L332.37 88.06L324.16 88.06L322.65 92.25L320.06 92.25L326.86 73.54L329.69 73.54L336.47 92.25L333.88 92.25M324.86 86.07L331.66 86.07L328.26 76.56 M359.85 92.25L356.91 92.25L352.43 84.56L349.46 84.56L349.46 92.25L347 92.25L347 73.43L353.08 73.43Q355.21 73.43 356.68 74.16Q358.15 74.89 358.88 76.13Q359.61 77.37 359.61 78.97Q359.61 80.91 358.49 82.39Q357.37 83.88 355.13 84.37L359.85 92.25M349.46 75.46L349.46 82.58L353.08 82.58Q355.07 82.58 356.07 81.60Q357.07 80.61 357.07 78.97Q357.07 77.29 356.09 76.37Q355.10 75.46 353.08 75.46 M369.82 73.43L382.56 73.43L382.56 75.43L377.43 75.43L377.43 92.25L374.97 92.25L374.97 75.43L369.82 75.43 M407.94 73.40L407.94 92.25L405.48 92.25L395.60 77.27L395.60 92.25L393.14 92.25L393.14 73.40L395.60 73.40L405.48 88.36L405.48 73.40 M429.81 75.43L422.14 75.43L422.14 81.72L429 81.72L429 83.75L422.14 83.75L422.14 90.22L429.81 90.22L429.81 92.25L419.68 92.25L419.68 73.40L429.81 73.40 M453.95 92.25L451 92.25L446.52 84.56L443.55 84.56L443.55 92.25L441.10 92.25L441.10 73.43L447.17 73.43Q449.30 73.43 450.78 74.16Q452.25 74.89 452.98 76.13Q453.70 77.37 453.70 78.97Q453.70 80.91 452.58 82.39Q451.46 83.88 449.22 84.37L453.95 92.25M443.55 75.46L443.55 82.58L447.17 82.58Q449.17 82.58 450.17 81.60Q451.17 80.61 451.17 78.97Q451.17 77.29 450.18 76.37Q449.20 75.46 447.17 75.46 M471.04 92.44Q469.18 92.44 467.70 91.78Q466.23 91.12 465.40 89.94Q464.56 88.77 464.53 87.23L467.15 87.23Q467.29 88.55 468.24 89.46Q469.20 90.36 471.04 90.36Q472.79 90.36 473.81 89.48Q474.82 88.61 474.82 87.23Q474.82 86.15 474.22 85.47Q473.63 84.80 472.74 84.45Q471.85 84.10 470.34 83.69Q468.47 83.20 467.35 82.72Q466.23 82.23 465.44 81.19Q464.64 80.15 464.64 78.40Q464.64 76.86 465.42 75.67Q466.21 74.48 467.62 73.84Q469.04 73.19 470.88 73.19Q473.52 73.19 475.21 74.51Q476.90 75.83 477.11 78.02L474.41 78.02Q474.28 76.94 473.28 76.12Q472.28 75.29 470.63 75.29Q469.09 75.29 468.12 76.09Q467.15 76.89 467.15 78.32Q467.15 79.34 467.73 79.99Q468.31 80.64 469.16 80.98Q470.01 81.31 471.55 81.75Q473.41 82.26 474.55 82.76Q475.68 83.26 476.49 84.30Q477.30 85.34 477.30 87.12Q477.30 88.50 476.57 89.71Q475.84 90.93 474.41 91.68Q472.98 92.44 471.04 92.44"/>
</svg>
